<?xml version="1.0" standalone="no"?>
<!DOCTYPE svg PUBLIC "-//W3C//DTD SVG 20010904//EN"
 "http://www.w3.org/TR/2001/REC-SVG-20010904/DTD/svg10.dtd">
<svg version="1.0" xmlns="http://www.w3.org/2000/svg"
 width="882.000000pt" height="882.000000pt" viewBox="0 0 882.000000 882.000000"
 preserveAspectRatio="xMidYMid meet">
<metadata>
Created by potrace 1.11, written by Peter Selinger 2001-2013
</metadata>
<g transform="translate(0.000000,882.000000) scale(0.100000,-0.100000)"
fill="#000000" stroke="none">
<path d="M1984 7858 c-3 -4 -9 -6 -13 -4 -4 3 -25 1 -47 -4 -21 -5 -52 -11
-69 -14 -58 -11 -71 -15 -160 -46 -141 -51 -361 -163 -373 -192 -2 -4 -8 -8
-14 -8 -9 0 -87 -58 -166 -124 -75 -61 -233 -227 -307 -320 -16 -21 -36 -44
-42 -51 -7 -8 -13 -18 -13 -23 0 -6 -4 -12 -8 -14 -12 -4 -109 -146 -168 -243
-51 -86 -174 -325 -213 -415 -12 -30 -29 -68 -36 -85 -24 -57 -94 -250 -116
-320 -22 -70 -25 -79 -33 -112 -3 -10 -5 -18 -6 -18 -1 0 -3 -7 -5 -16 -1 -9
-11 -43 -20 -75 -9 -33 -19 -67 -21 -76 -2 -10 -6 -26 -8 -35 -18 -76 -68
-325 -72 -353 -2 -19 -6 -44 -9 -55 -2 -11 -7 -47 -10 -80 -3 -33 -8 -67 -10
-75 -4 -14 -10 -65 -20 -165 -26 -262 -27 -830 -1 -1055 3 -25 8 -67 11 -95
13 -121 37 -286 49 -335 7 -29 15 -72 22 -115 5 -34 8 -49 17 -85 4 -14 18
-74 33 -135 14 -60 39 -155 56 -210 18 -55 33 -104 34 -110 3 -14 52 -152 71
-200 8 -22 19 -49 23 -60 4 -11 15 -36 24 -57 9 -20 16 -39 16 -42 0 -8 135
-284 168 -341 25 -45 72 -126 105 -180 7 -11 15 -22 18 -25 3 -3 11 -14 17
-25 13 -25 133 -185 187 -251 63 -76 223 -233 305 -300 156 -127 372 -251 515
-295 198 -62 306 -78 485 -74 149 3 209 12 340 47 127 34 290 107 410 183 25
16 45 27 45 25 0 -2 9 3 20 12 11 9 56 45 100 79 80 63 176 150 244 223 20 21
41 44 47 50 19 21 149 183 164 206 8 12 20 28 25 34 6 6 26 36 45 66 19 30 38
57 42 58 5 2 8 8 8 13 0 6 16 35 35 65 19 30 35 58 35 63 0 5 3 11 8 13 7 3
117 214 117 227 1 3 10 24 22 46 30 58 127 302 122 307 -1 2 4 14 11 28 8 14
15 27 15 30 0 3 15 51 34 108 18 57 34 111 37 120 2 9 17 69 34 132 17 63 33
126 35 140 2 14 4 25 5 25 2 0 9 34 14 65 2 14 11 59 19 100 21 103 38 216 41
268 1 12 3 22 6 22 3 0 5 15 6 33 0 17 4 59 8 92 33 258 38 810 11 1045 -3 19
-7 60 -9 90 -5 56 -12 115 -22 185 -3 22 -8 54 -9 70 -2 17 -6 41 -9 55 -3 14
-8 41 -10 60 -7 51 -55 290 -66 325 -5 17 -11 41 -14 55 -19 99 -128 437 -185
575 -84 200 -168 372 -230 475 -11 19 -24 42 -28 50 -12 26 -98 155 -105 158
-5 2 -8 8 -8 13 0 8 -52 81 -88 124 -9 11 -24 29 -32 41 -75 107 -278 304
-423 410 -40 29 -77 56 -83 61 -52 40 -298 158 -362 174 -4 1 -22 8 -39 16
-18 7 -33 11 -33 9 0 -3 -16 2 -35 10 -19 8 -37 14 -40 14 -8 -2 -98 12 -120
18 -35 9 -345 10 -351 0z"/>
<path d="M6518 7864 c-2 -1 -25 -6 -51 -9 -40 -6 -114 -22 -217 -49 -53 -14
-263 -107 -268 -118 -2 -5 -8 -8 -13 -8 -12 0 -113 -62 -117 -72 -2 -4 -10 -8
-18 -8 -8 0 -14 -4 -14 -9 0 -5 -8 -12 -17 -15 -10 -3 -29 -16 -43 -28 -14
-13 -36 -31 -50 -39 -71 -45 -242 -218 -356 -359 -16 -19 -31 -37 -35 -40 -3
-3 -34 -48 -70 -100 -35 -52 -67 -97 -70 -100 -3 -3 -28 -44 -57 -91 -88 -147
-179 -332 -272 -554 -49 -118 -154 -451 -175 -555 -4 -19 -10 -39 -13 -45 -3
-5 -7 -16 -8 -25 -1 -8 -4 -26 -7 -40 -25 -115 -38 -176 -41 -205 -3 -19 -6
-38 -9 -42 -3 -4 -7 -30 -11 -58 -3 -27 -9 -70 -13 -95 -4 -25 -7 -55 -7 -67
-1 -13 -3 -23 -6 -23 -3 0 -5 -15 -6 -33 -1 -17 -4 -59 -8 -92 -33 -278 -38
-742 -11 -1045 3 -36 7 -83 9 -105 4 -48 16 -140 22 -169 2 -12 6 -41 9 -66 5
-42 12 -85 22 -135 2 -11 6 -36 9 -55 3 -19 12 -64 20 -100 8 -36 17 -78 20
-95 3 -16 7 -37 10 -45 3 -8 8 -26 11 -40 7 -33 9 -42 16 -60 3 -8 11 -40 18
-70 16 -68 15 -62 21 -80 4 -8 20 -60 38 -115 31 -100 70 -211 96 -272 75
-179 98 -228 152 -332 86 -168 225 -395 269 -439 7 -7 13 -17 13 -20 0 -4 10
-18 23 -32 12 -14 36 -43 52 -64 55 -73 183 -204 275 -284 117 -101 123 -106
153 -121 15 -8 27 -18 27 -23 0 -4 7 -8 15 -8 8 0 15 -4 15 -8 0 -5 19 -19 43
-32 109 -60 226 -118 262 -130 22 -7 45 -16 50 -20 6 -4 33 -13 60 -19 28 -7
59 -15 70 -18 119 -31 201 -40 340 -38 155 3 179 5 287 29 142 32 288 87 387
145 28 17 54 31 57 31 11 0 163 107 234 164 85 69 223 205 290 285 25 29 50
59 55 65 6 6 35 45 65 86 30 41 58 76 62 78 5 2 8 7 8 11 0 5 22 41 48 82 27
41 60 94 73 119 13 25 27 47 30 50 5 5 124 246 162 330 8 19 13 38 11 42 -3 4
-1 8 5 8 6 0 14 15 19 33 6 17 17 49 26 69 9 21 13 38 9 38 -5 0 -3 4 3 8 9 6
95 252 110 311 2 9 11 43 20 76 9 33 18 67 19 75 2 8 4 15 5 15 3 0 11 39 13
62 1 13 5 23 8 23 4 0 6 8 6 18 -1 9 4 35 10 57 7 22 14 58 18 80 3 22 7 47
10 55 2 8 6 32 10 54 3 21 7 41 9 45 2 3 7 29 10 56 5 49 12 101 21 160 11 77
20 164 32 320 9 121 9 658 -1 770 -4 50 -9 110 -11 135 -7 93 -32 278 -50 380
-8 41 -16 89 -19 105 -9 56 -26 135 -42 198 -9 34 -17 71 -19 82 -4 26 -51
196 -71 260 -40 122 -46 141 -54 160 -5 11 -20 52 -33 90 -14 39 -32 86 -40
105 -9 19 -25 56 -36 82 -12 26 -21 52 -21 58 0 5 -4 10 -10 10 -5 0 -10 7
-10 15 0 13 -87 188 -137 276 -42 72 -48 83 -56 93 -4 6 -30 46 -57 89 -28 43
-55 84 -60 90 -5 7 -46 59 -91 116 -115 147 -249 279 -414 410 -14 11 -106 73
-130 88 -52 32 -146 81 -205 107 -36 16 -73 32 -82 37 -10 5 -26 9 -36 9 -10
0 -22 4 -28 9 -8 7 -73 27 -119 35 -11 2 -31 7 -45 10 -14 4 -43 9 -65 13 -44
6 -342 13 -347 7z"/>
</g>
</svg>
