<?xml version="1.0" standalone="no"?>
<!DOCTYPE svg PUBLIC "-//W3C//DTD SVG 20010904//EN"
 "http://www.w3.org/TR/2001/REC-SVG-20010904/DTD/svg10.dtd">
<svg version="1.0" xmlns="http://www.w3.org/2000/svg"
 width="900.000000pt" height="900.000000pt" viewBox="0 0 900.000000 900.000000"
 preserveAspectRatio="xMidYMid meet">
<metadata>
Created by potrace 1.15, written by Peter Selinger 2001-2017
</metadata>
<g transform="translate(0.000000,900.000000) scale(0.100000,-0.100000)"
fill="#fff" stroke="none">
<path d="M4210 8710 c-566 -44 -1091 -186 -1570 -425 -203 -101 -290 -151
-470 -270 -607 -404 -1092 -946 -1422 -1591 -78 -152 -86 -164 -126 -183 -52
-26 -62 -49 -62 -151 0 -62 -6 -96 -31 -167 -376 -1060 -322 -2200 151 -3213
550 -1177 1643 -2053 2907 -2329 321 -70 561 -95 913 -95 287 0 398 8 645 45
1580 239 2911 1387 3384 2919 199 642 241 1311 125 1984 -34 203 -115 506
-184 694 -24 66 -30 98 -30 162 0 102 -9 125 -63 151 -40 20 -48 31 -101 138
-604 1214 -1768 2072 -3100 2286 -280 45 -710 65 -966 45z m515 -350 c859 -57
1608 -357 2270 -909 140 -116 389 -372 508 -521 178 -222 405 -571 349 -536
-16 10 -363 45 -556 57 -264 15 -908 7 -1105 -15 -452 -51 -823 -151 -1123
-302 -167 -84 -350 -124 -568 -124 -220 0 -401 40 -570 125 -298 150 -673 251
-1120 300 -197 22 -840 31 -1105 16 -186 -11 -397 -31 -515 -50 -31 -5 -50 -4
-50 2 0 30 217 353 342 509 650 811 1601 1332 2621 1433 258 26 406 29 622 15z
m-108 -2610 c149 -66 227 -219 294 -575 56 -302 98 -432 196 -600 182 -314
432 -513 788 -628 299 -97 597 -119 903 -67 603 103 980 424 1137 971 14 49
39 170 56 267 16 97 36 205 44 239 21 90 82 271 109 323 l24 45 26 -85 c263
-850 222 -1781 -115 -2603 -197 -478 -475 -893 -849 -1267 -312 -313 -623
-538 -1010 -731 -990 -494 -2142 -539 -3170 -122 -484 196 -902 474 -1280 853
-181 181 -308 331 -447 530 -672 960 -866 2199 -521 3325 l30 100 25 -49 c14
-27 42 -102 63 -165 37 -113 52 -185 105 -478 91 -516 356 -867 787 -1042 409
-167 861 -183 1291 -44 332 106 556 273 739 548 127 191 176 322 242 656 77
386 141 519 283 593 77 39 170 41 250 6z"/>
<path d="M2575 3047 c-37 -37 -51 -87 -41 -140 15 -78 165 -285 326 -451 445
-457 1008 -696 1640 -696 534 0 1023 173 1435 506 255 206 535 557 535 671 0
79 -54 143 -120 143 -28 0 -57 -13 -116 -52 -567 -371 -1072 -544 -1649 -565
-612 -22 -1201 161 -1819 565 -99 65 -141 69 -191 19z"/>
</g>
</svg>
