<?xml version="1.0" standalone="no"?>
<!DOCTYPE svg PUBLIC "-//W3C//DTD SVG 20010904//EN"
 "http://www.w3.org/TR/2001/REC-SVG-20010904/DTD/svg10.dtd">
<svg version="1.0" xmlns="http://www.w3.org/2000/svg"
 width="904.000000pt" height="1067.000000pt" viewBox="0 0 904.000000 1067.000000"
 preserveAspectRatio="xMidYMid meet">
<metadata>
Created by potrace 1.15, written by Peter Selinger 2001-2017
</metadata>
<g transform="translate(0.000000,1067.000000) scale(0.100000,-0.100000)"
fill="#fff" stroke="none">
<path d="M4270 10623 c-30 -1 -102 -8 -160 -14 -529 -57 -886 -333 -1044 -809
-120 -361 -129 -649 -64 -2005 12 -242 22 -496 22 -565 1 -122 0 -127 -31
-191 -18 -36 -69 -117 -114 -180 -46 -62 -154 -221 -242 -352 -88 -132 -236
-341 -330 -465 -293 -390 -325 -448 -487 -882 -162 -434 -256 -647 -447 -1010
-45 -85 -96 -195 -114 -245 l-34 -90 0 -220 c0 -148 4 -231 12 -253 11 -31 9
-40 -48 -155 -82 -164 -83 -166 -129 -292 -68 -184 -127 -261 -238 -311 -88
-40 -128 -46 -367 -53 -209 -6 -234 -9 -270 -28 -87 -47 -135 -142 -142 -282
-7 -114 4 -183 54 -359 33 -115 36 -139 37 -252 0 -142 -15 -210 -85 -395 -37
-96 -43 -122 -46 -207 -5 -108 5 -138 61 -191 59 -56 160 -94 411 -156 132
-33 321 -76 419 -96 505 -101 695 -156 1081 -312 429 -173 575 -219 731 -230
161 -11 242 26 456 206 111 93 224 174 293 208 134 68 315 108 555 123 197 12
1106 12 1481 1 341 -11 331 -7 432 -191 91 -166 218 -258 422 -306 95 -22 412
-31 509 -14 197 34 281 85 506 305 193 188 283 264 438 366 149 99 283 172
466 254 193 87 289 142 488 277 237 162 288 221 288 336 0 121 -73 204 -331
374 -195 130 -306 230 -389 353 -86 128 -108 202 -118 398 l-8 139 -49 47
c-42 40 -59 49 -100 55 -28 4 -90 14 -138 23 l-89 15 50 52 c125 129 185 226
224 363 51 179 17 558 -99 1083 -47 215 -138 499 -221 686 -142 321 -277 541
-562 914 -328 430 -432 593 -718 1131 -143 268 -191 383 -231 544 -51 209 -79
445 -116 975 -45 643 -83 855 -192 1075 -136 273 -364 492 -657 630 -140 66
-302 119 -448 145 -104 18 -405 42 -488 38 -19 -1 -60 -3 -90 -5z m695 -1480
c159 -30 240 -75 300 -166 68 -102 149 -373 161 -536 10 -143 -34 -296 -96
-329 -55 -29 -172 6 -198 60 -11 23 -9 37 13 105 30 92 43 246 26 309 -15 56
-72 118 -138 150 -43 22 -75 29 -140 32 -107 6 -155 -11 -216 -77 -56 -60 -76
-120 -85 -258 -4 -56 -10 -104 -13 -107 -3 -3 -34 -1 -70 4 -124 20 -117 15
-130 78 -32 153 15 385 111 546 74 124 140 177 252 200 68 14 101 13 223 -11z
m-1282 -71 c139 -61 222 -244 234 -512 5 -118 4 -126 -16 -147 -16 -17 -33
-23 -63 -23 -50 0 -67 19 -68 77 0 87 -90 257 -153 289 -17 9 -58 17 -92 18
-52 1 -69 -4 -111 -29 -79 -50 -94 -80 -94 -195 0 -168 56 -291 146 -320 43
-14 43 -31 2 -100 -58 -96 -112 -90 -167 19 -53 105 -91 293 -91 454 0 103 24
219 62 295 82 164 262 240 411 174z m527 -762 c77 -11 256 -42 345 -60 28 -6
72 -26 100 -46 149 -104 211 -133 435 -204 190 -61 247 -87 283 -129 58 -69
60 -150 8 -318 l-32 -103 -133 -65 c-74 -36 -143 -65 -153 -65 -11 0 -53 -18
-94 -41 -219 -120 -632 -303 -775 -343 -120 -34 -198 -41 -281 -26 -93 17
-162 54 -272 145 -71 59 -91 81 -89 98 l3 22 290 0 290 0 90 28 c50 16 160 61
245 102 85 40 227 98 315 128 275 95 339 123 393 170 45 41 15 112 -44 105
-20 -2 -39 -17 -65 -52 -21 -27 -45 -53 -53 -58 -19 -11 -281 -109 -479 -179
-259 -92 -497 -140 -697 -141 -199 -1 -290 38 -384 165 -67 90 -97 118 -164
152 -44 21 -57 34 -74 72 -17 39 -18 51 -8 90 24 98 64 153 170 234 24 19 72
58 105 88 81 72 212 172 266 204 25 15 70 31 100 36 65 10 255 6 359 -9z
m1120 -1033 c0 -97 56 -234 144 -352 206 -276 287 -451 391 -847 53 -201 72
-246 187 -458 50 -91 102 -185 115 -210 46 -85 152 -315 177 -385 94 -265 117
-473 115 -1081 0 -360 -4 -461 -15 -509 -9 -33 -17 -84 -20 -114 -2 -29 -7
-57 -10 -62 -3 -5 -32 -9 -64 -9 -171 0 -268 -58 -324 -194 -20 -48 -21 -72
-24 -391 -2 -187 -3 -375 -2 -418 1 -43 -2 -83 -7 -90 -5 -7 -15 -31 -22 -54
-9 -33 -35 -66 -120 -150 -109 -108 -170 -163 -181 -163 -4 0 -49 -52 -101
-116 -130 -161 -127 -157 -198 -214 -228 -180 -550 -270 -1033 -287 -188 -7
-307 4 -425 37 -67 20 -181 78 -202 104 -18 22 -177 116 -195 116 -8 0 -41 17
-73 39 -32 21 -87 53 -123 71 -71 36 -120 68 -120 78 0 4 22 20 50 35 62 35
155 119 187 170 14 22 29 67 35 103 22 147 -64 288 -281 455 -318 247 -438
346 -679 557 -164 144 -174 158 -221 296 l-28 82 -1 330 c-2 606 41 851 231
1315 30 75 85 199 121 275 44 95 79 189 110 299 25 88 54 187 66 220 24 69 68
244 100 395 19 94 35 132 149 360 125 251 189 410 211 522 13 65 29 85 58 69
30 -16 104 -108 147 -181 85 -147 257 -334 341 -372 41 -18 62 -20 168 -16
151 5 172 14 321 143 102 89 407 301 535 373 30 16 87 43 125 58 78 31 91 38
188 103 104 70 171 110 185 111 8 0 12 -15 12 -43z m-3694 -3911 c175 -62 391
-287 716 -746 118 -168 550 -816 647 -974 86 -137 180 -333 209 -431 62 -212
46 -415 -48 -612 -89 -189 -237 -274 -474 -274 -125 0 -211 15 -486 86 -118
30 -330 83 -470 116 -644 153 -1458 361 -1516 388 -108 50 -110 109 -9 254
124 177 154 262 155 430 0 114 -28 215 -121 434 -84 196 -94 254 -60 322 42
81 147 100 359 65 163 -27 357 -4 443 53 49 33 115 118 139 181 28 73 60 205
76 312 11 75 24 115 59 187 25 50 45 95 45 100 1 4 11 20 23 34 60 72 217 110
313 75z m4813 -258 c5 -13 17 -50 27 -82 42 -135 172 -315 290 -404 86 -64
135 -82 244 -89 206 -12 396 82 673 335 32 29 61 51 65 48 4 -2 57 -9 117 -15
129 -14 175 -25 205 -49 30 -24 39 -76 23 -137 -39 -148 9 -447 94 -593 39
-66 125 -154 175 -179 24 -12 104 -38 178 -58 210 -55 324 -118 361 -200 26
-56 23 -101 -8 -163 -80 -158 -247 -255 -693 -402 -146 -48 -299 -103 -340
-122 -146 -67 -322 -189 -610 -422 -212 -172 -342 -228 -525 -229 -109 0 -176
14 -274 60 -146 69 -273 232 -302 388 -15 78 -6 216 26 435 58 394 53 517 -38
960 -30 148 -32 165 -32 390 0 258 8 317 56 411 48 95 115 135 237 138 35 1
44 -3 51 -21z"/>
</g>
</svg>
